<svg width="279" height="60" viewBox="0 0 279 60" fill="none" xmlns="http://www.w3.org/2000/svg">
<g clip-path="url(#clip0_5516_10513)">
<path d="M34.7688 10.8333L39.9958 16.0603C40.4484 15.5225 41.0113 15.0293 41.6244 14.683L36.2718 9.33036C35.8618 8.9204 35.1791 8.91856 34.7671 9.33056C34.3551 9.74256 34.355 10.4233 34.7669 10.8352L34.7688 10.8333Z" fill="#BB0016"/>
<path d="M35.6808 17.1454C36.6126 20.2358 39.0279 22.6511 42.1183 23.5829C43.5404 19.0861 40.1776 15.7233 35.6808 17.1454Z" fill="#BB0016"/>
<path d="M43.2029 19.2683L48.4298 24.4952C48.8398 24.9052 49.5225 24.907 49.9345 24.495C50.3465 24.083 50.3466 23.4023 49.9347 22.9904L44.582 17.6377C44.2396 18.2431 43.7386 18.8137 43.2048 19.2663L43.2029 19.2683Z" fill="#BB0016"/>
<path d="M31.0174 19.6662L39.5917 28.2405C40.4409 27.0858 41.2417 25.7976 41.7912 24.4669C38.4435 23.4443 35.8136 20.8144 34.789 17.4648C33.4661 18.022 32.1856 18.8151 31.0154 19.6643L31.0174 19.6662Z" fill="#BB0016"/>
<path d="M41.8208 17.4521C42.1418 17.7731 42.4203 18.1212 42.6484 18.5041C43.219 18.0031 43.7568 17.3416 44.0064 16.6744C44.1669 16.2508 44.2502 15.7189 43.904 15.3728C43.5579 15.0266 43.028 15.1079 42.6024 15.2705C41.9332 15.522 41.2737 16.0578 40.7727 16.6284C41.1498 16.8507 41.5037 17.135 41.8247 17.456L41.8208 17.4521Z" fill="#BB0016"/>
<path d="M14.6221 33.0675C14.1426 32.5879 13.3612 32.588 12.8815 33.0677L10.2703 35.679C9.79055 36.1587 9.79045 36.94 10.27 37.4196L14.6268 41.7764L14.6752 41.728C14.689 39.6953 15.8459 37.0649 16.7918 35.241L14.6202 33.0694L14.6221 33.0675Z" fill="#BB0016"/>
<path d="M26.1966 44.6409L24.025 42.4693C22.2011 43.4153 19.5707 44.5722 17.538 44.586L17.4897 44.6344L21.8387 48.9834C22.3183 49.463 23.0996 49.4629 23.5793 48.9832L26.1906 46.3719C26.678 45.8999 26.6781 45.1186 26.1986 44.639L26.1966 44.6409Z" fill="#BB0016"/>
<path d="M48.4767 38.465L20.7987 10.787C20.3597 10.348 19.65 10.35 19.2128 10.7872L13.8935 16.1065C13.4545 16.5455 13.4563 17.2553 13.8933 17.6924L41.5713 45.3704C42.0103 45.8093 42.7201 45.8073 43.1572 45.3701L48.4765 40.0509C48.9156 39.6118 48.9137 38.902 48.4767 38.465ZM18.0844 17.6357C17.8967 17.8233 17.6028 17.8234 17.4152 17.6358C17.2276 17.4482 17.2277 17.1543 17.4153 16.9666L20.0807 14.3012C20.2683 14.1136 20.5623 14.1135 20.7499 14.3011C20.9375 14.4887 20.9374 14.7827 20.7498 14.9703L18.0844 17.6357ZM20.3256 19.877C20.138 20.0646 19.844 20.0646 19.6564 19.877C19.4689 19.6895 19.4689 19.3955 19.6565 19.2079L22.322 16.5424C22.5096 16.3548 22.8035 16.3548 22.9911 16.5423C23.1787 16.7299 23.1787 17.0239 22.991 17.2115L20.3256 19.877ZM22.5726 22.124C22.385 22.3116 22.091 22.3117 21.9035 22.1241C21.7159 21.9365 21.7159 21.6425 21.9036 21.4549L24.569 18.7895C24.7566 18.6018 25.0506 18.6018 25.2382 18.7894C25.4257 18.977 25.4257 19.2709 25.2381 19.4586L22.5726 22.124ZM37.8146 37.3659C37.627 37.5536 37.333 37.5536 37.1454 37.366C36.9578 37.1785 36.9579 36.8845 37.1455 36.6969L39.8109 34.0314C39.9986 33.8438 40.2925 33.8438 40.4801 34.0313C40.6677 34.2189 40.6676 34.5129 40.48 34.7005L37.8146 37.3659ZM40.0558 39.6072C39.8682 39.7948 39.5742 39.7948 39.3867 39.6073C39.1991 39.4197 39.1991 39.1257 39.3867 38.9381L42.0522 36.2727C42.2398 36.085 42.5338 36.085 42.7213 36.2726C42.9089 36.4601 42.9089 36.7541 42.7213 36.9417L40.0558 39.6072ZM42.3029 41.8542C42.1152 42.0418 41.8213 42.0419 41.6337 41.8543C41.4461 41.6667 41.4462 41.3728 41.6338 41.1851L44.2992 38.5197C44.4868 38.3321 44.7808 38.332 44.9684 38.5196C45.156 38.7072 45.1559 39.0011 44.9683 39.1888L42.3029 41.8542Z" fill="#BB0016"/>
<path d="M23.8932 41.4751C26.5102 40.0842 29.044 38.3548 31.3689 36.5056L22.7598 27.8965C20.9067 30.2214 19.1812 32.7552 17.7903 35.3721C17.059 36.757 16.0569 38.8729 15.7298 40.6774L19.4881 36.9191C20.053 36.3543 20.9639 36.3639 21.5189 36.9189L22.3465 37.7465C22.9112 38.3112 22.9014 39.2221 22.3462 39.7772L18.5879 43.5355C20.3982 43.2143 22.52 42.2063 23.8932 41.4751Z" fill="#BB0016"/>
<path d="M21.6875 38.4062L20.8598 37.5785C20.6645 37.3832 20.3512 37.391 20.1636 37.5786L14.2195 43.5227C14.0242 43.718 14.0319 44.0313 14.2194 44.2189L15.0471 45.0466C15.2424 45.2419 15.5557 45.2341 15.7433 45.0465L21.6816 39.1082C21.8847 38.9206 21.8847 38.5996 21.6894 38.4042L21.6875 38.4062Z" fill="#BB0016"/>
</g>
<path d="M87.2252 42.5L97.8333 18.7H103.273L113.915 42.5H108.135L99.4313 21.488H101.607L92.8693 42.5H87.2252ZM92.5292 37.4L93.9913 33.218H106.231L107.727 37.4H92.5292ZM120.012 42.5L112.328 24.208H117.802L124.194 39.95H121.474L128.104 24.208H133.204L125.486 42.5H120.012ZM135.368 42.5V24.208H140.672V42.5H135.368ZM138.02 21.658C137.045 21.658 136.252 21.3747 135.64 20.808C135.028 20.2413 134.722 19.5387 134.722 18.7C134.722 17.8613 135.028 17.1587 135.64 16.592C136.252 16.0253 137.045 15.742 138.02 15.742C138.995 15.742 139.788 16.014 140.4 16.558C141.012 17.0793 141.318 17.7593 141.318 18.598C141.318 19.482 141.012 20.2187 140.4 20.808C139.811 21.3747 139.017 21.658 138.02 21.658ZM156.814 42.5V38.93L156.474 38.148V31.756C156.474 30.6227 156.123 29.7387 155.42 29.104C154.74 28.4693 153.686 28.152 152.258 28.152C151.284 28.152 150.32 28.3107 149.368 28.628C148.439 28.9227 147.646 29.3307 146.988 29.852L145.084 26.146C146.082 25.4433 147.283 24.8993 148.688 24.514C150.094 24.1287 151.522 23.936 152.972 23.936C155.76 23.936 157.925 24.5933 159.466 25.908C161.008 27.2227 161.778 29.274 161.778 32.062V42.5H156.814ZM151.238 42.772C149.81 42.772 148.586 42.534 147.566 42.058C146.546 41.5593 145.764 40.8907 145.22 40.052C144.676 39.2133 144.404 38.2727 144.404 37.23C144.404 36.142 144.665 35.19 145.186 34.374C145.73 33.558 146.58 32.9233 147.736 32.47C148.892 31.994 150.4 31.756 152.258 31.756H157.12V34.85H152.836C151.59 34.85 150.728 35.054 150.252 35.462C149.799 35.87 149.572 36.38 149.572 36.992C149.572 37.672 149.833 38.216 150.354 38.624C150.898 39.0093 151.635 39.202 152.564 39.202C153.448 39.202 154.242 38.998 154.944 38.59C155.647 38.1593 156.157 37.536 156.474 36.72L157.29 39.168C156.905 40.3467 156.202 41.242 155.182 41.854C154.162 42.466 152.848 42.772 151.238 42.772ZM177.391 42.772C175.85 42.772 174.501 42.432 173.345 41.752C172.189 41.072 171.282 40.0407 170.625 38.658C169.99 37.2527 169.673 35.4847 169.673 33.354C169.673 31.2007 169.979 29.4327 170.591 28.05C171.203 26.6673 172.087 25.636 173.243 24.956C174.399 24.276 175.782 23.936 177.391 23.936C179.114 23.936 180.655 24.3327 182.015 25.126C183.398 25.8967 184.486 26.9847 185.279 28.39C186.095 29.7953 186.503 31.45 186.503 33.354C186.503 35.2807 186.095 36.9467 185.279 38.352C184.486 39.7573 183.398 40.8453 182.015 41.616C180.655 42.3867 179.114 42.772 177.391 42.772ZM166.579 49.096V24.208H171.645V27.948L171.543 33.388L171.883 38.794V49.096H166.579ZM176.473 38.42C177.357 38.42 178.139 38.216 178.819 37.808C179.522 37.4 180.077 36.822 180.485 36.074C180.916 35.3033 181.131 34.3967 181.131 33.354C181.131 32.2887 180.916 31.382 180.485 30.634C180.077 29.886 179.522 29.308 178.819 28.9C178.139 28.492 177.357 28.288 176.473 28.288C175.589 28.288 174.796 28.492 174.093 28.9C173.39 29.308 172.835 29.886 172.427 30.634C172.019 31.382 171.815 32.2887 171.815 33.354C171.815 34.3967 172.019 35.3033 172.427 36.074C172.835 36.822 173.39 37.4 174.093 37.808C174.796 38.216 175.589 38.42 176.473 38.42ZM198.757 42.772C196.808 42.772 195.074 42.364 193.555 41.548C192.059 40.732 190.869 39.6213 189.985 38.216C189.124 36.788 188.693 35.1673 188.693 33.354C188.693 31.518 189.124 29.8973 189.985 28.492C190.869 27.064 192.059 25.9533 193.555 25.16C195.074 24.344 196.808 23.936 198.757 23.936C200.684 23.936 202.407 24.344 203.925 25.16C205.444 25.9533 206.634 27.0527 207.495 28.458C208.357 29.8633 208.787 31.4953 208.787 33.354C208.787 35.1673 208.357 36.788 207.495 38.216C206.634 39.6213 205.444 40.732 203.925 41.548C202.407 42.364 200.684 42.772 198.757 42.772ZM198.757 38.42C199.641 38.42 200.435 38.216 201.137 37.808C201.84 37.4 202.395 36.822 202.803 36.074C203.211 35.3033 203.415 34.3967 203.415 33.354C203.415 32.2887 203.211 31.382 202.803 30.634C202.395 29.886 201.84 29.308 201.137 28.9C200.435 28.492 199.641 28.288 198.757 28.288C197.873 28.288 197.08 28.492 196.377 28.9C195.675 29.308 195.108 29.886 194.677 30.634C194.269 31.382 194.065 32.2887 194.065 33.354C194.065 34.3967 194.269 35.3033 194.677 36.074C195.108 36.822 195.675 37.4 196.377 37.808C197.08 38.216 197.873 38.42 198.757 38.42ZM218.487 42.772C216.923 42.772 215.415 42.5907 213.965 42.228C212.537 41.8427 211.403 41.3667 210.565 40.8L212.333 36.992C213.171 37.5133 214.157 37.944 215.291 38.284C216.447 38.6013 217.58 38.76 218.691 38.76C219.915 38.76 220.776 38.6127 221.275 38.318C221.796 38.0233 222.057 37.6153 222.057 37.094C222.057 36.6633 221.853 36.346 221.445 36.142C221.059 35.9153 220.538 35.7453 219.881 35.632C219.223 35.5187 218.498 35.4053 217.705 35.292C216.934 35.1787 216.152 35.0313 215.359 34.85C214.565 34.646 213.84 34.3513 213.183 33.966C212.525 33.5807 211.993 33.0593 211.585 32.402C211.199 31.7447 211.007 30.8947 211.007 29.852C211.007 28.696 211.335 27.676 211.993 26.792C212.673 25.908 213.647 25.2167 214.917 24.718C216.186 24.1967 217.705 23.936 219.473 23.936C220.719 23.936 221.989 24.072 223.281 24.344C224.573 24.616 225.649 25.0127 226.511 25.534L224.743 29.308C223.859 28.7867 222.963 28.4353 222.057 28.254C221.173 28.05 220.311 27.948 219.473 27.948C218.294 27.948 217.433 28.1067 216.889 28.424C216.345 28.7413 216.073 29.1493 216.073 29.648C216.073 30.1013 216.265 30.4413 216.651 30.668C217.059 30.8947 217.591 31.076 218.249 31.212C218.906 31.348 219.62 31.4727 220.391 31.586C221.184 31.6767 221.977 31.824 222.771 32.028C223.564 32.232 224.278 32.5267 224.913 32.912C225.57 33.2747 226.103 33.7847 226.511 34.442C226.919 35.0767 227.123 35.9153 227.123 36.958C227.123 38.0913 226.783 39.1 226.103 39.984C225.423 40.8453 224.437 41.5253 223.145 42.024C221.875 42.5227 220.323 42.772 218.487 42.772ZM237.875 42.772C235.722 42.772 234.045 42.228 232.843 41.14C231.642 40.0293 231.041 38.386 231.041 36.21V20.162H236.345V36.142C236.345 36.9127 236.549 37.5133 236.957 37.944C237.365 38.352 237.921 38.556 238.623 38.556C239.462 38.556 240.176 38.3293 240.765 37.876L242.193 41.616C241.649 42.0013 240.992 42.296 240.221 42.5C239.473 42.6813 238.691 42.772 237.875 42.772ZM228.219 28.696V24.616H240.901V28.696H228.219ZM253.684 42.772C251.599 42.772 249.763 42.364 248.176 41.548C246.612 40.732 245.4 39.6213 244.538 38.216C243.677 36.788 243.246 35.1673 243.246 33.354C243.246 31.518 243.666 29.8973 244.504 28.492C245.366 27.064 246.533 25.9533 248.006 25.16C249.48 24.344 251.146 23.936 253.004 23.936C254.795 23.936 256.404 24.3213 257.832 25.092C259.283 25.84 260.428 26.928 261.266 28.356C262.105 29.7613 262.524 31.45 262.524 33.422C262.524 33.626 262.513 33.864 262.49 34.136C262.468 34.3853 262.445 34.6233 262.422 34.85H247.564V31.756H259.634L257.594 32.674C257.594 31.722 257.402 30.8947 257.016 30.192C256.631 29.4893 256.098 28.9453 255.418 28.56C254.738 28.152 253.945 27.948 253.038 27.948C252.132 27.948 251.327 28.152 250.624 28.56C249.944 28.9453 249.412 29.5007 249.026 30.226C248.641 30.9287 248.448 31.7673 248.448 32.742V33.558C248.448 34.5553 248.664 35.4393 249.094 36.21C249.548 36.958 250.171 37.536 250.964 37.944C251.78 38.3293 252.732 38.522 253.82 38.522C254.795 38.522 255.645 38.3747 256.37 38.08C257.118 37.7853 257.798 37.3433 258.41 36.754L261.232 39.814C260.394 40.766 259.34 41.5027 258.07 42.024C256.801 42.5227 255.339 42.772 253.684 42.772ZM266.055 42.5V24.208H271.121V29.376L270.407 27.88C270.951 26.588 271.824 25.6133 273.025 24.956C274.227 24.276 275.689 23.936 277.411 23.936V28.832C277.185 28.8093 276.981 28.798 276.799 28.798C276.618 28.7753 276.425 28.764 276.221 28.764C274.771 28.764 273.592 29.1833 272.685 30.022C271.801 30.838 271.359 32.1187 271.359 33.864V42.5H266.055Z" fill="black"/>
<defs>
<clipPath id="clip0_5516_10513">
<rect width="41.3878" height="41.3878" fill="white" transform="translate(29.2656 0.734375) rotate(45)"/>
</clipPath>
</defs>
</svg>
