<svg width="154" height="60" viewBox="0 0 154 60" fill="none" xmlns="http://www.w3.org/2000/svg">
<g clip-path="url(#clip0_5562_2271)">
<path d="M35.2688 10.8333L40.4958 16.0603C40.9484 15.5225 41.5113 15.0293 42.1244 14.683L36.7718 9.33036C36.3618 8.9204 35.6791 8.91856 35.2671 9.33056C34.8551 9.74256 34.855 10.4233 35.2669 10.8352L35.2688 10.8333Z" fill="#BB0016"/>
<path d="M36.1808 17.1454C37.1126 20.2358 39.5279 22.6511 42.6183 23.5829C44.0404 19.0861 40.6776 15.7233 36.1808 17.1454Z" fill="#BB0016"/>
<path d="M43.7029 19.2683L48.9298 24.4952C49.3398 24.9052 50.0225 24.907 50.4345 24.495C50.8465 24.083 50.8466 23.4023 50.4347 22.9904L45.082 17.6377C44.7396 18.2431 44.2386 18.8137 43.7048 19.2663L43.7029 19.2683Z" fill="#BB0016"/>
<path d="M31.5174 19.6662L40.0917 28.2405C40.9409 27.0858 41.7417 25.7976 42.2912 24.4669C38.9435 23.4443 36.3136 20.8144 35.289 17.4648C33.9661 18.022 32.6856 18.8151 31.5154 19.6643L31.5174 19.6662Z" fill="#BB0016"/>
<path d="M42.3208 17.4521C42.6418 17.7731 42.9203 18.1212 43.1484 18.5041C43.719 18.0031 44.2568 17.3416 44.5064 16.6744C44.6669 16.2508 44.7502 15.7189 44.404 15.3728C44.0579 15.0266 43.528 15.1079 43.1024 15.2705C42.4332 15.522 41.7737 16.0578 41.2727 16.6284C41.6498 16.8507 42.0037 17.135 42.3247 17.456L42.3208 17.4521Z" fill="#BB0016"/>
<path d="M15.1221 33.0675C14.6426 32.5879 13.8612 32.588 13.3815 33.0677L10.7703 35.679C10.2906 36.1587 10.2905 36.94 10.77 37.4196L15.1268 41.7764L15.1752 41.728C15.189 39.6953 16.3459 37.0649 17.2918 35.241L15.1202 33.0694L15.1221 33.0675Z" fill="#BB0016"/>
<path d="M26.6966 44.6409L24.525 42.4693C22.7011 43.4153 20.0707 44.5722 18.038 44.586L17.9897 44.6344L22.3387 48.9834C22.8183 49.463 23.5996 49.4629 24.0793 48.9832L26.6906 46.3719C27.178 45.8999 27.1781 45.1186 26.6986 44.639L26.6966 44.6409Z" fill="#BB0016"/>
<path d="M48.9767 38.465L21.2987 10.787C20.8597 10.348 20.15 10.35 19.7128 10.7872L14.3935 16.1065C13.9545 16.5455 13.9563 17.2553 14.3933 17.6924L42.0713 45.3704C42.5103 45.8093 43.2201 45.8073 43.6572 45.3701L48.9765 40.0509C49.4156 39.6118 49.4137 38.902 48.9767 38.465ZM18.5844 17.6357C18.3967 17.8233 18.1028 17.8234 17.9152 17.6358C17.7276 17.4482 17.7277 17.1543 17.9153 16.9666L20.5807 14.3012C20.7683 14.1136 21.0623 14.1135 21.2499 14.3011C21.4375 14.4887 21.4374 14.7827 21.2498 14.9703L18.5844 17.6357ZM20.8256 19.877C20.638 20.0646 20.344 20.0646 20.1564 19.877C19.9689 19.6895 19.9689 19.3955 20.1565 19.2079L22.822 16.5424C23.0096 16.3548 23.3035 16.3548 23.4911 16.5423C23.6787 16.7299 23.6787 17.0239 23.491 17.2115L20.8256 19.877ZM23.0726 22.124C22.885 22.3116 22.591 22.3117 22.4035 22.1241C22.2159 21.9365 22.2159 21.6425 22.4036 21.4549L25.069 18.7895C25.2566 18.6018 25.5506 18.6018 25.7382 18.7894C25.9257 18.977 25.9257 19.2709 25.7381 19.4586L23.0726 22.124ZM38.3146 37.3659C38.127 37.5536 37.833 37.5536 37.6454 37.366C37.4578 37.1785 37.4579 36.8845 37.6455 36.6969L40.3109 34.0314C40.4986 33.8438 40.7925 33.8438 40.9801 34.0313C41.1677 34.2189 41.1676 34.5129 40.98 34.7005L38.3146 37.3659ZM40.5558 39.6072C40.3682 39.7948 40.0742 39.7948 39.8867 39.6073C39.6991 39.4197 39.6991 39.1257 39.8867 38.9381L42.5522 36.2727C42.7398 36.085 43.0338 36.085 43.2213 36.2726C43.4089 36.4601 43.4089 36.7541 43.2213 36.9417L40.5558 39.6072ZM42.8029 41.8542C42.6152 42.0418 42.3213 42.0419 42.1337 41.8543C41.9461 41.6667 41.9462 41.3728 42.1338 41.1851L44.7992 38.5197C44.9868 38.3321 45.2808 38.332 45.4684 38.5196C45.656 38.7072 45.6559 39.0011 45.4683 39.1888L42.8029 41.8542Z" fill="#BB0016"/>
<path d="M24.3932 41.4751C27.0102 40.0842 29.544 38.3548 31.8689 36.5056L23.2598 27.8965C21.4067 30.2214 19.6812 32.7552 18.2903 35.3721C17.559 36.757 16.5569 38.8729 16.2298 40.6774L19.9881 36.9191C20.553 36.3543 21.4639 36.3639 22.0189 36.9189L22.8465 37.7465C23.4112 38.3112 23.4014 39.2221 22.8462 39.7772L19.0879 43.5355C20.8982 43.2143 23.02 42.2063 24.3932 41.4751Z" fill="#BB0016"/>
<path d="M22.1875 38.4062L21.3598 37.5785C21.1645 37.3832 20.8512 37.391 20.6636 37.5786L14.7195 43.5227C14.5242 43.718 14.5319 44.0313 14.7194 44.2189L15.5471 45.0466C15.7424 45.2419 16.0557 45.2341 16.2433 45.0465L22.1816 39.1082C22.3847 38.9206 22.3847 38.5996 22.1894 38.4042L22.1875 38.4062Z" fill="#BB0016"/>
</g>
<path d="M62.8872 36L67.8793 24.8H70.4393L75.4473 36H72.7273L68.6313 26.112H69.6553L65.5433 36H62.8872ZM65.3832 33.6L66.0713 31.632H71.8313L72.5353 33.6H65.3832ZM78.3161 36L74.7001 27.392H77.2761L80.2841 34.8H79.0041L82.1241 27.392H84.5241L80.8921 36H78.3161ZM85.5426 36V27.392H88.0386V36H85.5426ZM86.7906 26.192C86.332 26.192 85.9586 26.0587 85.6706 25.792C85.3826 25.5253 85.2386 25.1947 85.2386 24.8C85.2386 24.4053 85.3826 24.0747 85.6706 23.808C85.9586 23.5413 86.332 23.408 86.7906 23.408C87.2493 23.408 87.6226 23.536 87.9106 23.792C88.1986 24.0373 88.3426 24.3573 88.3426 24.752C88.3426 25.168 88.1986 25.5147 87.9106 25.792C87.6333 26.0587 87.26 26.192 86.7906 26.192ZM95.6351 36V34.32L95.4751 33.952V30.944C95.4751 30.4107 95.3098 29.9947 94.9791 29.696C94.6591 29.3973 94.1631 29.248 93.4911 29.248C93.0325 29.248 92.5791 29.3227 92.1311 29.472C91.6938 29.6107 91.3205 29.8027 91.0111 30.048L90.1151 28.304C90.5845 27.9733 91.1498 27.7173 91.8111 27.536C92.4725 27.3547 93.1445 27.264 93.8271 27.264C95.1391 27.264 96.1578 27.5733 96.8831 28.192C97.6085 28.8107 97.9711 29.776 97.9711 31.088V36H95.6351ZM93.0111 36.128C92.3391 36.128 91.7631 36.016 91.2831 35.792C90.8031 35.5573 90.4351 35.2427 90.1791 34.848C89.9231 34.4533 89.7951 34.0107 89.7951 33.52C89.7951 33.008 89.9178 32.56 90.1631 32.176C90.4191 31.792 90.8191 31.4933 91.3631 31.28C91.9071 31.056 92.6165 30.944 93.4911 30.944H95.7791V32.4H93.7631C93.1765 32.4 92.7711 32.496 92.5471 32.688C92.3338 32.88 92.2271 33.12 92.2271 33.408C92.2271 33.728 92.3498 33.984 92.5951 34.176C92.8511 34.3573 93.1978 34.448 93.6351 34.448C94.0511 34.448 94.4245 34.352 94.7551 34.16C95.0858 33.9573 95.3258 33.664 95.4751 33.28L95.8591 34.432C95.6778 34.9867 95.3471 35.408 94.8671 35.696C94.3871 35.984 93.7685 36.128 93.0111 36.128ZM105.318 36.128C104.593 36.128 103.958 35.968 103.414 35.648C102.87 35.328 102.443 34.8427 102.134 34.192C101.835 33.5307 101.686 32.6987 101.686 31.696C101.686 30.6827 101.83 29.8507 102.118 29.2C102.406 28.5493 102.822 28.064 103.366 27.744C103.91 27.424 104.561 27.264 105.318 27.264C106.129 27.264 106.854 27.4507 107.494 27.824C108.145 28.1867 108.657 28.6987 109.03 29.36C109.414 30.0213 109.606 30.8 109.606 31.696C109.606 32.6027 109.414 33.3867 109.03 34.048C108.657 34.7093 108.145 35.2213 107.494 35.584C106.854 35.9467 106.129 36.128 105.318 36.128ZM100.23 39.104V27.392H102.614V29.152L102.566 31.712L102.726 34.256V39.104H100.23ZM104.886 34.08C105.302 34.08 105.67 33.984 105.99 33.792C106.321 33.6 106.582 33.328 106.774 32.976C106.977 32.6133 107.078 32.1867 107.078 31.696C107.078 31.1947 106.977 30.768 106.774 30.416C106.582 30.064 106.321 29.792 105.99 29.6C105.67 29.408 105.302 29.312 104.886 29.312C104.47 29.312 104.097 29.408 103.766 29.6C103.435 29.792 103.174 30.064 102.982 30.416C102.79 30.768 102.694 31.1947 102.694 31.696C102.694 32.1867 102.79 32.6133 102.982 32.976C103.174 33.328 103.435 33.6 103.766 33.792C104.097 33.984 104.47 34.08 104.886 34.08ZM115.373 36.128C114.456 36.128 113.64 35.936 112.925 35.552C112.221 35.168 111.661 34.6453 111.245 33.984C110.84 33.312 110.637 32.5493 110.637 31.696C110.637 30.832 110.84 30.0693 111.245 29.408C111.661 28.736 112.221 28.2133 112.925 27.84C113.64 27.456 114.456 27.264 115.373 27.264C116.28 27.264 117.09 27.456 117.805 27.84C118.52 28.2133 119.08 28.7307 119.485 29.392C119.89 30.0533 120.093 30.8213 120.093 31.696C120.093 32.5493 119.89 33.312 119.485 33.984C119.08 34.6453 118.52 35.168 117.805 35.552C117.09 35.936 116.28 36.128 115.373 36.128ZM115.373 34.08C115.789 34.08 116.162 33.984 116.493 33.792C116.824 33.6 117.085 33.328 117.277 32.976C117.469 32.6133 117.565 32.1867 117.565 31.696C117.565 31.1947 117.469 30.768 117.277 30.416C117.085 30.064 116.824 29.792 116.493 29.6C116.162 29.408 115.789 29.312 115.373 29.312C114.957 29.312 114.584 29.408 114.253 29.6C113.922 29.792 113.656 30.064 113.453 30.416C113.261 30.768 113.165 31.1947 113.165 31.696C113.165 32.1867 113.261 32.6133 113.453 32.976C113.656 33.328 113.922 33.6 114.253 33.792C114.584 33.984 114.957 34.08 115.373 34.08ZM124.657 36.128C123.921 36.128 123.212 36.0427 122.529 35.872C121.857 35.6907 121.324 35.4667 120.929 35.2L121.761 33.408C122.156 33.6533 122.62 33.856 123.153 34.016C123.697 34.1653 124.231 34.24 124.753 34.24C125.329 34.24 125.735 34.1707 125.969 34.032C126.215 33.8933 126.337 33.7013 126.337 33.456C126.337 33.2533 126.241 33.104 126.049 33.008C125.868 32.9013 125.623 32.8213 125.313 32.768C125.004 32.7147 124.663 32.6613 124.289 32.608C123.927 32.5547 123.559 32.4853 123.185 32.4C122.812 32.304 122.471 32.1653 122.161 31.984C121.852 31.8027 121.601 31.5573 121.409 31.248C121.228 30.9387 121.137 30.5387 121.137 30.048C121.137 29.504 121.292 29.024 121.601 28.608C121.921 28.192 122.38 27.8667 122.977 27.632C123.575 27.3867 124.289 27.264 125.121 27.264C125.708 27.264 126.305 27.328 126.913 27.456C127.521 27.584 128.028 27.7707 128.433 28.016L127.601 29.792C127.185 29.5467 126.764 29.3813 126.337 29.296C125.921 29.2 125.516 29.152 125.121 29.152C124.567 29.152 124.161 29.2267 123.905 29.376C123.649 29.5253 123.521 29.7173 123.521 29.952C123.521 30.1653 123.612 30.3253 123.793 30.432C123.985 30.5387 124.236 30.624 124.545 30.688C124.855 30.752 125.191 30.8107 125.553 30.864C125.927 30.9067 126.3 30.976 126.673 31.072C127.047 31.168 127.383 31.3067 127.681 31.488C127.991 31.6587 128.241 31.8987 128.433 32.208C128.625 32.5067 128.721 32.9013 128.721 33.392C128.721 33.9253 128.561 34.4 128.241 34.816C127.921 35.2213 127.457 35.5413 126.849 35.776C126.252 36.0107 125.521 36.128 124.657 36.128ZM133.781 36.128C132.768 36.128 131.979 35.872 131.413 35.36C130.848 34.8373 130.565 34.064 130.565 33.04V25.488H133.061V33.008C133.061 33.3707 133.157 33.6533 133.349 33.856C133.541 34.048 133.803 34.144 134.133 34.144C134.528 34.144 134.864 34.0373 135.141 33.824L135.813 35.584C135.557 35.7653 135.248 35.904 134.885 36C134.533 36.0853 134.165 36.128 133.781 36.128ZM129.237 29.504V27.584H135.205V29.504H129.237ZM141.221 36.128C140.24 36.128 139.376 35.936 138.629 35.552C137.893 35.168 137.322 34.6453 136.917 33.984C136.512 33.312 136.309 32.5493 136.309 31.696C136.309 30.832 136.506 30.0693 136.901 29.408C137.306 28.736 137.856 28.2133 138.549 27.84C139.242 27.456 140.026 27.264 140.901 27.264C141.744 27.264 142.501 27.4453 143.173 27.808C143.856 28.16 144.394 28.672 144.789 29.344C145.184 30.0053 145.381 30.8 145.381 31.728C145.381 31.824 145.376 31.936 145.365 32.064C145.354 32.1813 145.344 32.2933 145.333 32.4H138.341V30.944H144.021L143.061 31.376C143.061 30.928 142.97 30.5387 142.789 30.208C142.608 29.8773 142.357 29.6213 142.037 29.44C141.717 29.248 141.344 29.152 140.917 29.152C140.49 29.152 140.112 29.248 139.781 29.44C139.461 29.6213 139.21 29.8827 139.029 30.224C138.848 30.5547 138.757 30.9493 138.757 31.408V31.792C138.757 32.2613 138.858 32.6773 139.061 33.04C139.274 33.392 139.568 33.664 139.941 33.856C140.325 34.0373 140.773 34.128 141.285 34.128C141.744 34.128 142.144 34.0587 142.485 33.92C142.837 33.7813 143.157 33.5733 143.445 33.296L144.773 34.736C144.378 35.184 143.882 35.5307 143.285 35.776C142.688 36.0107 142 36.128 141.221 36.128ZM147.043 36V27.392H149.427V29.824L149.091 29.12C149.347 28.512 149.757 28.0533 150.323 27.744C150.888 27.424 151.576 27.264 152.387 27.264V29.568C152.28 29.5573 152.184 29.552 152.099 29.552C152.013 29.5413 151.923 29.536 151.827 29.536C151.144 29.536 150.589 29.7333 150.163 30.128C149.747 30.512 149.539 31.1147 149.539 31.936V36H147.043Z" fill="black"/>
<defs>
<clipPath id="clip0_5562_2271">
<rect width="41.3878" height="41.3878" fill="white" transform="translate(29.7656 0.734375) rotate(45)"/>
</clipPath>
</defs>
</svg>
