<svg width="54" height="60" viewBox="0 0 54 60" fill="none" xmlns="http://www.w3.org/2000/svg">
<path d="M46.3537 3.51562C45.0734 3.51562 43.8732 3.86121 42.838 4.46156V1.75781C42.838 0.787031 42.051 0 41.0802 0H12.9552C11.9843 0 11.1973 0.787031 11.1973 1.75781V4.48301C10.154 3.8693 8.94004 3.51562 7.64453 3.51562C3.7675 3.51562 0.613281 6.66984 0.613281 10.5469C0.613281 13.5041 1.48961 16.3615 3.14746 18.8102C5.9698 22.9789 9.45016 24.0607 12.33 25.2127C13.9906 29.348 17.3486 32.6252 21.5375 34.1769L20.2412 42.4219H19.9865C17.0787 42.4219 14.713 44.7875 14.713 47.6953V56.4844H12.9552C11.9845 56.4844 11.1974 57.2714 11.1974 58.2422C11.1974 59.213 11.9845 60 12.9552 60H41.0802C42.051 60 42.838 59.213 42.838 58.2422C42.838 57.2714 42.051 56.4844 41.0802 56.4844H39.3224V47.6953C39.3224 44.7875 36.9568 42.4219 34.049 42.4219H33.7942L32.4981 34.177C36.6931 32.623 40.0548 29.3386 41.7129 25.1948C44.4334 24.1066 47.9996 23.0217 50.8509 18.8102C52.5087 16.3615 53.385 13.504 53.385 10.5469C53.3849 6.66984 50.2307 3.51562 46.3537 3.51562ZM11.1843 20.968C6.89828 19.2536 4.12891 15.1631 4.12891 10.5469C4.12891 8.60836 5.70602 7.03125 7.64453 7.03125C9.58305 7.03125 11.1602 8.60836 11.1602 10.5469C11.1602 10.6705 11.1732 10.791 11.1974 10.9073V19.3359C11.1974 19.9009 11.2278 20.4588 11.2859 21.0087L11.1843 20.968ZM35.8068 56.4844H18.2287V52.9688H35.8068V56.4844ZM34.049 45.9375C35.0182 45.9375 35.8068 46.7261 35.8068 47.6953V49.4531H18.2287V47.6953C18.2287 46.7261 19.0172 45.9375 19.9865 45.9375C20.9402 45.9375 31.8125 45.9375 34.049 45.9375ZM23.8 42.4219L24.9632 35.023C25.6359 35.1107 26.3215 35.1562 27.0177 35.1562C27.7139 35.1562 28.3996 35.1105 29.0723 35.023L30.2355 42.4219H23.8ZM39.3224 19.3359C39.3224 26.1207 33.8025 31.6406 27.0177 31.6406C20.2329 31.6406 14.713 26.1207 14.713 19.3359V10.5469H39.3224V19.3359ZM39.3224 7.03125H14.713V3.51562H39.3224V7.03125ZM42.8138 20.968L42.7513 20.993C42.8083 20.4483 42.8379 19.8955 42.8379 19.3359V10.5469C42.838 8.60836 44.4152 7.03125 46.3537 7.03125C48.2922 7.03125 49.8693 8.60836 49.8693 10.5469C49.8693 15.1631 47.0999 19.2537 42.8138 20.968Z" fill="#BB0016"/>
</svg>
