<svg width="61" height="56" viewBox="0 0 61 56" fill="none" xmlns="http://www.w3.org/2000/svg">
<path d="M56.0159 29.1019V1.77964C56.0159 0.804893 55.2257 0.0146484 54.2509 0.0146484H6.96308C5.98833 0.0146484 5.19809 0.804893 5.19809 1.77964V31.28C4.34666 31.404 3.51429 31.7346 2.77793 32.2812C0.45662 33.9273 -0.092409 37.6109 1.85202 39.8827L9.80189 49.5204C14.7229 55.2798 19.9505 55.9854 27.7218 55.9854C34.3908 55.9854 37.3723 56.0148 43.1844 54.6905L48.8439 53.3369C49.7616 54.6184 51.2184 55.4485 52.8562 55.4485H55.6442C58.4143 55.4485 60.6679 53.0744 60.6679 50.1561V34.3784C60.6681 31.592 58.6129 29.3031 56.0159 29.1019ZM48.0826 32.7326L45.731 31.5382C41.8643 29.5865 37.3939 29.5142 33.4662 31.3403C32.3946 31.7618 30.0574 33.1759 28.8451 33.1286H20.6847C17.9779 33.1286 15.7757 35.3307 15.7757 38.0376V39.3247C15.7605 39.3087 15.7446 39.2936 15.7297 39.2773L9.90226 32.9519C9.54961 32.5692 9.15343 32.2489 8.72819 31.9919V14.481H23.172V20.951C23.172 21.9257 23.9623 22.7159 24.937 22.7159H36.0742C37.049 22.7159 37.8392 21.9257 37.8392 20.951V14.481H52.486V29.1018C50.4238 29.2611 48.7043 30.7364 48.0826 32.7326ZM26.7019 14.481H34.3091V19.186H26.7019V14.481ZM52.4859 10.951H37.8392V3.54463H52.486V10.951H52.4859ZM34.3092 3.54463V10.9511H26.702V3.54463H34.3092ZM23.1719 3.54463V10.9511H8.72807V3.54463H23.1719ZM42.3652 51.2568C36.9961 52.4865 33.7626 52.4367 27.7851 52.4367C20.4898 52.4367 16.9649 52.3188 12.5251 47.274L4.57528 37.6363C3.19247 35.8357 5.69711 33.7101 7.30607 35.3435L13.1335 41.669C14.6736 43.2941 16.6117 44.1885 19.0004 44.2411H35.1569C36.1316 44.2411 36.9219 43.4508 36.9219 42.4761C36.9219 41.5013 36.1316 40.7111 35.1569 40.7111H19.3055V38.0373C19.3055 37.277 19.9241 36.6583 20.6846 36.6583H28.8449C30.6834 36.79 33.3368 35.2549 34.9543 34.541C37.8959 33.1733 41.2442 33.2274 44.1363 34.6872L47.8327 36.5646V49.9489L42.3652 51.2568ZM57.1381 50.156C57.1381 51.1278 56.468 51.9184 55.6443 51.9184H52.8563C52.0327 51.9184 51.3627 51.1278 51.3627 50.156V34.3784C51.3627 33.4066 52.0328 32.6159 52.8563 32.6159H55.6443C56.468 32.6159 57.1381 33.4065 57.1381 34.3784V50.156Z" fill="#BB0016"/>
</svg>
