<svg width="54" height="60" viewBox="0 0 54 60" fill="none" xmlns="http://www.w3.org/2000/svg">
<path d="M51.6955 23.9628C51.3011 10.6825 40.3761 0 27.0018 0C13.6276 0 2.70254 10.6825 2.30807 23.9628L0.53125 25.7396V37.7898L2.29596 39.5545V47.7647C2.29596 52.5652 6.20137 56.4706 11.0018 56.4706H13.1877C13.9162 58.5246 15.8777 60 18.1783 60H21.7077C24.0098 60 25.9724 58.5225 26.6997 56.4664C26.8005 56.4681 26.9016 56.4706 27.0018 56.4706C35.524 56.4706 42.6545 50.3981 44.2941 42.3529H48.9093L53.4724 37.7898V25.7396L51.6955 23.9628ZM27.0018 3.52941C37.4761 3.52941 46.1973 11.174 47.8825 21.1765H44.2941C42.6545 13.1313 35.524 7.05882 27.0018 7.05882C18.4797 7.05882 11.3491 13.1313 9.7096 21.1765H6.12113C7.80643 11.174 16.5276 3.52941 27.0018 3.52941ZM40.6728 21.1765C34.9682 21.1594 30.9388 21.5068 27.6167 16.6506L26.0035 14.2926L24.6171 16.7907C22.5971 20.4306 19.8768 21.1765 16.4136 21.1765H13.3309C14.9021 15.0944 20.4356 10.5882 27.0018 10.5882C33.5681 10.5882 39.1016 15.0944 40.6728 21.1765ZM9.35478 38.8235H6.55631L4.06066 36.3279V27.2015L6.55631 24.7059H9.35478V38.8235ZM5.82537 47.7647V42.3529H9.70619C10.3705 45.6441 11.9601 48.6652 14.3149 51.0916C13.8212 51.6191 13.4341 52.2467 13.1877 52.9412H11.0018C8.14749 52.9412 5.82537 50.6191 5.82537 47.7647ZM21.7077 56.4706H18.1783C17.2051 56.4706 16.4136 55.6791 16.4136 54.7059C16.4136 53.7328 17.2051 52.9412 18.1783 52.9412H21.7077C22.6808 52.9412 23.4724 53.7328 23.4724 54.7059C23.4724 55.6791 22.6808 56.4706 21.7077 56.4706ZM41.1195 38.8235C41.1195 46.608 34.7863 52.9412 27.0018 52.9412C26.9007 52.9412 26.7987 52.9392 26.6968 52.9368C25.9671 50.8851 24.0067 49.4118 21.7077 49.4118C18.0842 49.4198 18.142 49.3936 17.6903 49.4352C14.6265 46.7498 12.8842 42.9248 12.8842 38.8235V24.7059H16.4136C19.5368 24.7059 23.3403 24.1909 26.2845 20.6076C30.1693 24.6786 34.9165 24.7059 39.1781 24.7059H41.1195V38.8235ZM49.943 36.3279L47.4474 38.8235H44.6489V24.7059H47.4474L49.943 27.2015V36.3279Z" fill="#BB0016"/>
</svg>
