<svg width="61" height="60" viewBox="0 0 61 60" fill="none" xmlns="http://www.w3.org/2000/svg">
<path d="M57.118 21.2612C56.3263 18.8097 56.6638 15.1296 54.606 12.2882C52.532 9.42438 48.9249 8.61039 46.8881 7.1207C44.8727 5.64672 42.9977 2.43918 39.6075 1.33293C36.313 0.257852 32.9441 1.71672 30.332 1.71672C27.7203 1.71672 24.3516 0.2575 21.0565 1.33281C17.667 2.43883 15.7905 5.64707 13.7764 7.12035C11.7418 8.60828 8.13191 9.42449 6.05828 12.2879C4.00223 15.127 4.33633 18.8154 3.54602 21.2611C2.79391 23.5888 0.332031 26.3825 0.332031 30.0003C0.332031 33.6203 2.79109 36.4032 3.54602 38.7393C4.33773 41.1909 4.00023 44.8709 6.05805 47.7123C8.13191 50.5763 11.7389 51.3902 13.776 52.88C15.7911 54.3537 17.6664 57.5615 21.0565 58.6676C24.3488 59.742 27.723 58.2838 30.332 58.2838C32.9375 58.2838 36.3195 59.7405 39.6075 58.6677C42.9972 57.5617 44.8725 54.3542 46.8877 52.8802C48.9223 51.3923 52.5321 50.5761 54.6058 47.7127C56.662 44.8735 56.3276 41.1854 57.118 38.7394C57.8702 36.4116 60.332 33.618 60.332 30.0003C60.332 26.3805 57.8736 23.5984 57.118 21.2612ZM52.6578 37.298C51.7349 40.1545 51.9767 43.3512 50.8095 44.963C49.6266 46.5962 46.5189 47.3423 44.1209 49.0963C41.7491 50.8308 40.0868 53.5804 38.1535 54.2112C36.3244 54.8082 33.3436 53.5961 30.3321 53.5961C27.2986 53.5961 24.3486 54.8107 22.5107 54.2112C20.5776 53.5804 18.9176 50.8327 16.5433 49.0962C14.1595 47.3528 11.0341 46.5914 9.85457 44.9628C8.69113 43.3564 8.92375 40.1375 8.00652 37.2981C7.10746 34.5162 5.01953 32.1074 5.01953 30.0003C5.01953 27.891 7.10559 25.4905 8.00629 22.7025C8.92914 19.8462 8.68738 16.6492 9.85457 15.0375C11.0368 13.4054 14.1468 12.6569 16.5433 10.9042C18.9225 9.1641 20.5744 6.42109 22.5105 5.78934C24.338 5.19309 27.3285 6.40445 30.3319 6.40445C33.3709 6.40445 36.3136 5.18898 38.1534 5.78934C40.0863 6.42004 41.7476 9.16879 44.1209 10.9043C46.5044 12.6477 49.63 13.4091 50.8095 15.0377C51.9732 16.6444 51.7393 19.86 52.6575 22.7023V22.7024C53.5566 25.4843 55.6445 27.8931 55.6445 30.0003C55.6445 32.1095 53.5585 34.51 52.6578 37.298ZM41.13 22.4774C42.0454 23.3928 42.0454 24.8767 41.13 25.792L29.3989 37.5231C28.4835 38.4385 26.9995 38.4384 26.0842 37.5231L19.5341 30.973C18.6188 30.0577 18.6187 28.5737 19.534 27.6585C20.4494 26.7433 21.9336 26.7432 22.8486 27.6585L27.7415 32.5513L37.8153 22.4775C38.7306 21.5622 40.2147 21.5622 41.13 22.4774Z" fill="#BB0016"/>
</svg>
